<svg width="180" height="25" viewBox="0 0 180 25" fill="none" xmlns="http://www.w3.org/2000/svg">
<path fill-rule="evenodd" clip-rule="evenodd" d="M9.33361 9.6002V15.6004C9.33361 18.1762 7.24264 20.2672 4.66681 20.2672C2.09097 20.2672 0 18.1762 0 15.6004V4.9334C0 2.35757 2.09097 0.266602 4.66681 0.266602H15.3338C17.9096 0.266602 20.0006 2.35757 20.0006 4.9334C20.0006 7.50924 17.9096 9.6002 15.3338 9.6002H9.33361Z" fill="white"/>
<path opacity="0.85" fill-rule="evenodd" clip-rule="evenodd" d="M13.3336 13.6002V19.6004C13.3336 22.1762 11.2426 24.2672 8.66681 24.2672C6.09097 24.2672 4 22.1762 4 19.6004V8.93342C4 6.35758 6.09097 4.2666 8.66681 4.2666H19.3338C21.9096 4.2666 24.0006 6.35758 24.0006 8.93342C24.0006 11.5093 21.9096 13.6002 19.3338 13.6002H13.3336Z" fill="white"/>
<path d="M32.7939 18.2014V6.54959C32.7939 5.41824 33.7132 4.49902 34.8445 4.49902H40.1578C41.9508 4.49902 43.3296 4.93337 44.2842 5.80209C45.2388 6.6708 45.7186 7.83751 45.7186 9.29715C45.7186 10.7568 45.2337 11.9235 44.264 12.7922C43.2943 13.6609 41.9255 14.0953 40.1578 14.0953H36.8799V18.2014C36.8799 19.3277 35.9658 20.2419 34.8395 20.2419C33.7081 20.2419 32.7939 19.3277 32.7939 18.2014ZM36.8749 10.9992H39.6123C40.4103 10.9992 40.9912 10.8578 41.3599 10.5699C41.7286 10.282 41.9154 9.87292 41.9154 9.3426C41.9154 8.78198 41.7336 8.35771 41.375 8.06983C41.0114 7.78194 40.4255 7.64053 39.6174 7.64053H36.8799V10.9992H36.8749Z" fill="white"/>
<path d="M47.6731 18.2116V6.53444C47.6731 5.41319 48.5822 4.49902 49.7085 4.49902H57.1178C57.9966 4.49902 58.7088 5.21116 58.7088 6.08998C58.7088 6.96879 57.9966 7.68093 57.1178 7.68093H51.648V10.6457H54.2086C55.0875 10.6457 55.7996 11.3578 55.7996 12.2366C55.7996 13.1154 55.0875 13.8276 54.2086 13.8276H51.648V17.0549H57.1178C57.9966 17.0549 58.7088 17.7671 58.7088 18.6459C58.7088 19.5247 57.9966 20.2369 57.1178 20.2369H49.7035C48.5822 20.2419 47.6731 19.3328 47.6731 18.2116Z" fill="white"/>
<path d="M60.7896 18.1812V6.55968C60.7896 5.42329 61.7138 4.49902 62.8502 4.49902H67.1079C68.8302 4.49902 70.31 4.81216 71.5373 5.43844C72.7697 6.06472 73.7142 6.96373 74.3708 8.13549C75.0274 9.30724 75.3607 10.7113 75.3607 12.3477C75.3607 13.9993 75.0324 15.4135 74.3809 16.5953C73.7293 17.7772 72.7899 18.6762 71.5575 19.3025C70.3252 19.9288 68.8403 20.2419 67.1029 20.2419H62.8452C61.7138 20.2419 60.7896 19.3227 60.7896 18.1812ZM64.8755 16.9287H66.8301C68.3352 16.9287 69.4615 16.5499 70.209 15.7923C70.9565 15.0347 71.3252 13.8882 71.3252 12.3528C71.3252 9.3325 69.8252 7.81729 66.8301 7.81729H64.8755V16.9287Z" fill="white"/>
<path d="M77.7549 18.2014V6.53948C77.7549 5.41318 78.6691 4.49902 79.7954 4.49902C80.9216 4.49902 81.8358 5.41318 81.8358 6.53948V18.2014C81.8358 19.3277 80.9216 20.2419 79.7954 20.2419C78.6691 20.2419 77.7549 19.3277 77.7549 18.2014Z" fill="white"/>
<path d="M84.6191 18.0045V6.73646C84.6191 5.49905 85.6192 4.49902 86.8566 4.49902H90.9375C92.6598 4.49902 94.1396 4.81216 95.3669 5.43844C96.5993 6.06472 97.5438 6.96373 98.2004 8.13549C98.8569 9.30724 99.1903 10.7113 99.1903 12.3477C99.1903 13.9993 98.867 15.4135 98.2105 16.5953C97.5589 17.7772 96.6195 18.6762 95.3871 19.3025C94.1548 19.9288 92.6699 20.2419 90.9325 20.2419H86.8515C85.6242 20.2419 84.6191 19.2419 84.6191 18.0045ZM88.7051 16.9287H90.6597C92.1648 16.9287 93.2911 16.5499 94.0386 15.7923C94.7861 15.0347 95.1548 13.8882 95.1548 12.3528C95.1548 9.3325 93.6548 7.81729 90.6597 7.81729H88.7051V16.9287Z" fill="white"/>
<path d="M108.948 20.4437C107.352 20.4437 105.973 20.1103 104.811 19.4487C103.645 18.787 102.746 17.8476 102.119 16.6405C101.488 15.4334 101.175 14.0041 101.175 12.3525C101.175 10.7161 101.493 9.2918 102.129 8.08469C102.766 6.87759 103.665 5.94323 104.821 5.28664C105.978 4.63006 107.357 4.30176 108.948 4.30176C110.539 4.30176 111.912 4.63006 113.064 5.28664C114.216 5.94323 115.105 6.87759 115.736 8.08469C116.367 9.2918 116.68 10.7161 116.68 12.3525C116.68 14.0041 116.367 15.4334 115.736 16.6405C115.105 17.8476 114.216 18.787 113.064 19.4487C111.912 20.1103 110.544 20.4437 108.948 20.4437ZM108.948 17.282C110.079 17.282 110.978 16.8678 111.65 16.0445C112.322 15.2213 112.66 13.9889 112.66 12.3525C112.66 10.7312 112.322 9.50899 111.65 8.69078C110.978 7.87257 110.074 7.46347 108.948 7.46347C107.816 7.46347 106.917 7.86753 106.256 8.68068C105.589 9.49384 105.256 10.7161 105.256 12.3525C105.256 14.0041 105.589 15.2364 106.256 16.0546C106.922 16.8728 107.821 17.282 108.948 17.282Z" fill="white"/>
<path d="M119.069 18.2116V6.56978C119.069 5.42328 119.998 4.49902 121.14 4.49902H126.433C128.226 4.49902 129.605 4.93337 130.559 5.80209C131.514 6.6708 131.993 7.83751 131.993 9.29715C131.993 10.7568 131.509 11.9235 130.539 12.7922C129.569 13.6609 128.2 14.0953 126.433 14.0953H123.155V18.2116C123.155 19.3328 122.246 20.247 121.119 20.247H121.104C119.983 20.2419 119.069 19.3328 119.069 18.2116ZM123.155 10.9992H125.892C126.69 10.9992 127.271 10.8578 127.64 10.5699C128.009 10.282 128.195 9.87292 128.195 9.3426C128.195 8.78198 128.014 8.35771 127.655 8.06983C127.291 7.78194 126.705 7.64053 125.897 7.64053H123.16V10.9992H123.155Z" fill="white"/>
<path d="M133.297 20.2419H133.226C131.908 20.2419 131.034 18.8782 131.584 17.6812L137.16 5.54955C137.453 4.90812 138.095 4.49902 138.802 4.49902H139.701C140.408 4.49902 141.044 4.90812 141.342 5.54955L146.933 17.6812C147.484 18.8782 146.61 20.2419 145.292 20.2419C144.565 20.2419 143.908 19.8076 143.63 19.1358L138.862 7.83244H139.751L134.963 19.1358C134.675 19.8126 134.024 20.2419 133.297 20.2419ZM133.756 16.9943L135.342 13.8781H142.923L144.489 16.9943H133.756Z" fill="white"/>
<path d="M156.413 20.4438C154.716 20.4438 153.257 20.1206 152.024 19.4691C150.792 18.8226 149.843 17.8933 149.181 16.6811C148.514 15.474 148.181 14.0295 148.181 12.3476C148.181 10.7112 148.514 9.28693 149.181 8.07983C149.848 6.87272 150.787 5.93834 151.994 5.28176C153.201 4.62517 154.626 4.29688 156.262 4.29688C157.378 4.29688 158.429 4.44335 159.424 4.74134C159.898 4.88275 160.328 5.04943 160.717 5.23631C161.388 5.5646 161.666 6.37271 161.368 7.05454L161.181 7.4788C160.868 8.20104 160.02 8.51923 159.308 8.19094C159.03 8.06468 158.762 7.95355 158.499 7.86769C157.848 7.65557 157.146 7.5495 156.393 7.5495C155.019 7.5495 153.994 7.94345 153.317 8.73135C152.646 9.51925 152.307 10.7264 152.307 12.3476C152.307 14.0295 152.656 15.272 153.363 16.0851C154.065 16.8983 155.146 17.3023 156.61 17.3023C157.075 17.3023 157.55 17.267 158.045 17.1912C158.54 17.1154 159.035 16.9993 159.545 16.8377L158.656 18.0296V14.2467C158.656 14.1962 158.616 14.1558 158.565 14.1558H157.368C156.59 14.1558 155.964 13.5295 155.964 12.7517C155.964 11.9739 156.59 11.3476 157.368 11.3476H160.924C161.702 11.3476 162.328 11.9739 162.328 12.7517V17.8528C162.328 18.7468 161.747 19.5398 160.888 19.8024C160.772 19.8378 160.651 19.8731 160.535 19.9034C159.888 20.0802 159.222 20.2115 158.525 20.3024C157.823 20.3984 157.121 20.4438 156.413 20.4438Z" fill="white"/>
<path d="M172.267 20.4437C170.671 20.4437 169.293 20.1103 168.131 19.4487C166.964 18.787 166.065 17.8476 165.439 16.6405C164.808 15.4334 164.494 14.0041 164.494 12.3525C164.494 10.7161 164.813 9.2918 165.449 8.08469C166.085 6.87759 166.984 5.94323 168.141 5.28664C169.298 4.63006 170.676 4.30176 172.267 4.30176C173.858 4.30176 175.232 4.63006 176.384 5.28664C177.535 5.94323 178.424 6.87759 179.055 8.08469C179.687 9.2918 180 10.7161 180 12.3525C180 14.0041 179.687 15.4334 179.055 16.6405C178.424 17.8476 177.535 18.787 176.384 19.4487C175.232 20.1103 173.863 20.4437 172.267 20.4437ZM172.267 17.282C173.399 17.282 174.298 16.8678 174.969 16.0445C175.641 15.2213 175.98 13.9889 175.98 12.3525C175.98 10.7312 175.641 9.50899 174.969 8.69078C174.298 7.87257 173.394 7.46347 172.267 7.46347C171.136 7.46347 170.237 7.86753 169.575 8.68068C168.909 9.49384 168.575 10.7161 168.575 12.3525C168.575 14.0041 168.909 15.2364 169.575 16.0546C170.242 16.8728 171.141 17.282 172.267 17.282Z" fill="white"/>
</svg>
